<svg id="Layer_1" data-name="Layer 1" xmlns="http://www.w3.org/2000/svg" viewBox="0 0 400 400">
  <path d="M366.67,123.76,271.74,28.83a13.42,13.42,0,0,0-22.07,4.82,88.29,88.29,0,0,0-3.84,46.52l-92.41,81.41c-50.08-17.8-89.52,9.72-91.23,10.94a13.43,13.43,0,0,0-1.68,20.41l65.14,65.15L28.83,354.9A8.32,8.32,0,1,0,40.6,366.67l96.83-96.82L202.58,335a13.33,13.33,0,0,0,9.47,3.93c.38,0,.75,0,1.12,0a13.44,13.44,0,0,0,9.84-5.59c1.39-2,8.58-12.6,13.15-29.19a102.56,102.56,0,0,0-2.24-62l81.41-92.41a88,88,0,0,0,46.53-3.84,13.41,13.41,0,0,0,4.81-22.07ZM131.23,240.12,75.12,184c9.74-5.74,40.05-20.25,76.86-5.14l8.67-1.46,99.85-88,2.58-8.25a72.07,72.07,0,0,1,.6-36.87l87.51,87.51a71.86,71.86,0,0,1-36.87.6L306.07,135l-88,99.85-1.46,8.66c15.06,36.71.57,67.11-5.14,76.87L151.14,260"/>
</svg>
